<svg width="48" height="48" viewBox="0 0 48 48" fill="none" xmlns="http://www.w3.org/2000/svg">
<path d="M40 24L36.8906 22.125L34.3125 24L31.2886 31.2886L32.9941 34.8691L35.2642 35.2642C38.1502 32.3784 40 28.3941 40 24Z" fill="#FF4B00"/>
<path d="M35.2642 35.2643L31.2885 31.2886L23.9998 34.3125L22.1248 37.3008L23.9998 40C28.3939 40 32.3783 38.1502 35.2642 35.2643Z" fill="#FF9F00"/>
<path d="M24 34.3125L16.7114 31.2886L12.7793 31.4707L12.7357 35.2643C15.6216 38.1502 19.6059 40 24 40L24 34.3125Z" fill="#66BB00"/>
<path d="M16.7114 31.2886L13.6876 24L10.5821 22.125L8.00005 24C8.00005 28.3941 9.84986 32.3784 12.7357 35.2643L16.7114 31.2886Z" fill="#00CC71"/>
<path d="M16.7114 16.7114L16.7637 13.0137L12.7357 12.7357C9.8498 15.6216 7.99998 19.606 7.99998 24L13.6875 24L16.7114 16.7114Z" fill="#0095FF"/>
<path d="M24 13.6875L25.875 10.9336L24 8C19.6059 8 15.6216 9.84981 12.7357 12.7357L16.7114 16.7114L24 13.6875Z" fill="#6B77E8"/>
<path d="M34.7518 15.1232L35.2642 12.7357C32.3783 9.84981 28.3939 8 23.9998 8L23.9998 13.6875L31.2885 16.7114L34.7518 15.1232Z" fill="#B760EA"/>
<path d="M34.3125 24L40 24C40 19.606 38.1502 15.6216 35.2643 12.7357L31.2886 16.7114C33.1559 18.5787 34.3125 21.1568 34.3125 24Z" fill="#FF193D"/>
<path d="M34.3125 24L31.5 22.125L28.6875 24L27.3129 27.3129L29.1562 31.0312L31.2886 31.2886C33.1559 29.4213 34.3125 26.8432 34.3125 24Z" fill="#FF7816"/>
<path d="M31.2886 31.2886L27.3129 27.3129L23.9999 28.6875L22.1249 31.2886L23.9999 34.3125C26.8431 34.3125 29.4213 33.1559 31.2886 31.2886Z" fill="#FDBF00"/>
<path d="M24 28.6875L20.6871 27.3129L18.3679 27.7571L16.7114 31.2886C18.5787 33.1559 21.1568 34.3125 24 34.3125L24 28.6875Z" fill="#77DD00"/>
<path d="M20.687 27.3129L19.3124 24L16.3828 22.125L13.6874 24C13.6874 26.8432 14.844 29.4213 16.7113 31.2886L20.687 27.3129Z" fill="#00DD7B"/>
<path d="M20.687 20.6871L20.4453 16.6954L16.7113 16.7114C14.844 18.5787 13.6874 21.1568 13.6874 24L19.3124 24L20.687 20.6871Z" fill="#3AAAFF"/>
<path d="M24 19.3125L25.875 16.6954L24 13.6875C21.1568 13.6875 18.5787 14.8441 16.7114 16.7114L20.6871 20.6871L24 19.3125Z" fill="#7984EB"/>
<path d="M31.2656 20.4844L31.2886 16.7114C29.4213 14.8441 26.8431 13.6875 23.9999 13.6875L23.9999 19.3125L27.3129 20.6871L31.2656 20.4844Z" fill="#CB75F6"/>
<path d="M31.2886 16.7114L27.3129 20.6871L28.6875 24L34.3125 24C34.3125 21.1568 33.1559 18.5787 31.2886 16.7114Z" fill="#FF4949"/>
<path d="M27.3129 27.3129C28.1618 26.4641 28.6875 25.2922 28.6875 24L26.8418 22.125L24 24L25.6565 27.5315L27.3129 27.3129Z" fill="#FF9F00"/>
<path d="M24.0001 28.6875C25.2923 28.6875 26.4642 28.1618 27.313 27.3129L24.0001 24L22.1251 26.9882L24.0001 28.6875Z" fill="#FFD400"/>
<path d="M20.6871 27.3129C21.5359 28.1617 22.7078 28.6875 24 28.6875L24 24L20.4685 25.6565L20.6871 27.3129Z" fill="#89F900"/>
<path d="M24 24L21.3633 22.125L19.3125 24C19.3125 25.2922 19.8382 26.4641 20.6871 27.3129L24 24Z" fill="#00EE84"/>
<path d="M24 24L23.0625 21.1875L20.6871 20.6871C19.8382 21.5359 19.3125 22.7078 19.3125 24L24 24Z" fill="#73BCFF"/>
<path d="M24 19.3125C22.7078 19.3125 21.5359 19.8382 20.6871 20.6871L24 24L24.9375 21.2461L24 19.3125Z" fill="#979FEF"/>
<path d="M27.313 20.6871C26.4642 19.8382 25.2923 19.3125 24.0001 19.3125L24.0001 24L26.8126 23.0625L27.313 20.6871Z" fill="#DA90F8"/>
<path d="M28.6875 24C28.6875 22.7078 28.1618 21.5359 27.3129 20.6871L24 24L28.6875 24Z" fill="#FF6C6C"/>
</svg>
