<svg width="48" height="48" viewBox="0 0 48 48" fill="none" xmlns="http://www.w3.org/2000/svg">
<path d="M40 19.8109C40 18.9188 39.6509 18.0655 39.0109 17.4255L30.5745 8.98909C29.2558 7.6703 27.1224 7.6703 25.8036 8.98909L8.98909 25.8036C8.34909 26.4436 8 27.297 8 28.1891C8 29.0812 8.34909 29.9345 8.98909 30.5745L17.4255 39.0109C18.0848 39.6703 18.9382 40 19.8109 40C19.8885 40 19.9855 40 20.063 39.9806C20.1018 39.9806 20.1212 39.9806 20.16 39.9806H35.6558C36.4509 39.9806 37.1103 39.3212 37.1103 38.5261C37.1103 37.7309 36.4509 37.0715 35.6558 37.0715H24.1164L38.9915 22.1964C39.6315 21.5564 39.9806 20.703 39.9806 19.8109H40ZM11.0448 28.5188C10.9285 28.4024 10.9091 28.2667 10.9091 28.1891C10.9091 28.1115 10.9091 27.9758 11.0448 27.8594L18.4145 20.4897L27.5103 29.5855L20.1406 36.9552C19.9661 37.1297 19.6752 37.1297 19.4812 36.9552L11.0448 28.4994V28.5188ZM36.9552 20.16L29.5855 27.5297L20.4897 18.4339L27.8594 11.0642C28.0339 10.8897 28.3248 10.8897 28.5188 11.0642L36.9552 19.52C37.0715 19.6364 37.0909 19.7721 37.0909 19.8497C37.0909 19.9273 37.0909 20.063 36.9552 20.1794V20.16Z" fill="black"/>
</svg>
