<svg width="48" height="48" viewBox="0 0 48 48" fill="none" xmlns="http://www.w3.org/2000/svg">
<path d="M28.6798 8.76139C29.9365 7.50475 31.9739 7.50475 33.2306 8.76139L38.9188 14.4497C40.1755 15.7064 40.1755 17.7438 38.9188 19.0004L20.9351 36.9842C20.7388 37.1804 20.4953 37.3225 20.228 37.3968L11.9441 39.6978C9.53206 40.3678 7.31242 38.1481 7.98243 35.7362L10.2835 27.4524C10.3577 27.185 10.4999 26.9414 10.696 26.7452L28.6798 8.76139ZM36.6435 16.725L30.9552 11.0367L14.109 27.8829L19.7973 33.5711L36.6435 16.7251V16.725ZM16.7098 35.0344L12.6458 30.9703L11.0828 36.5975L16.7098 35.0344Z" fill="black"/>
</svg>
