<svg width="48" height="48" viewBox="0 0 48 48" fill="none" xmlns="http://www.w3.org/2000/svg">
<path fill-rule="evenodd" clip-rule="evenodd" d="M29.3624 8.50898C28.6838 9.18764 28.6838 10.2879 29.3624 10.9666L33.347 14.9512H20.1645C13.4462 14.9512 8 20.3974 8 27.1157C8 33.834 13.4462 39.2802 20.1645 39.2802H30.3239C31.2836 39.2802 32.0617 38.5022 32.0617 37.5424C32.0617 36.5827 31.2836 35.8047 30.3239 35.8047H20.1645C15.3656 35.8047 11.4756 31.9144 11.4756 27.1157C11.4756 22.317 15.3656 18.4267 20.1645 18.4267H33.347L29.3624 22.4113C28.6838 23.0899 28.6838 24.1903 29.3624 24.8689C30.0411 25.5475 31.1414 25.5475 31.82 24.8689L40 16.689L31.82 8.50898C31.1414 7.83034 30.0411 7.83034 29.3624 8.50898Z" fill="black"/>
</svg>
