<svg width="48" height="48" viewBox="0 0 48 48" fill="none" xmlns="http://www.w3.org/2000/svg">
<path d="M33.3143 40H15.0286C13.6949 40 12.4159 39.4703 11.4728 38.5271C10.5298 37.5841 10 36.305 10 34.9714V13.0286C10 11.6949 10.5298 10.4159 11.4728 9.47284C12.4159 8.52979 13.6949 8 15.0286 8H28.7429C29.1064 8.00033 29.4551 8.14502 29.712 8.40229L37.9406 16.6857C38.1979 16.9427 38.3425 17.2912 38.3429 17.6549V34.9714C38.3429 36.305 37.8131 37.5841 36.8699 38.5271C35.9269 39.4703 34.6479 40 33.3143 40ZM15.0286 10.7429C14.4224 10.7429 13.841 10.9837 13.4123 11.4123C12.9837 11.841 12.7429 12.4224 12.7429 13.0286V34.9714C12.7429 35.5776 12.9837 36.1591 13.4123 36.5877C13.841 37.0163 14.4224 37.2571 15.0286 37.2571H33.3143C33.9205 37.2571 34.5019 37.0163 34.9306 36.5877C35.3592 36.1591 35.6 35.5776 35.6 34.9714V18.1669L28.176 10.7429H15.0286Z" fill="black"/>
<path d="M32.8573 38.6286H30.1144V27.2H18.2287V38.6286H15.4858V26.7429C15.4858 26.1367 15.7267 25.5552 16.1553 25.1266C16.584 24.698 17.1653 24.4572 17.7716 24.4572H30.5716C31.1777 24.4572 31.7592 24.698 32.1878 25.1266C32.6164 25.5552 32.8573 26.1367 32.8573 26.7429V38.6286Z" fill="black"/>
<path d="M25.031 18.0571H17.8265C17.5167 18.0547 17.2104 17.9913 16.9252 17.8706C16.6399 17.7498 16.3812 17.574 16.1639 17.3533C15.9465 17.1326 15.7748 16.8712 15.6585 16.5841C15.5421 16.2969 15.4835 15.9897 15.4859 15.68V9.3714H18.2288V15.3143H24.6288V9.3714H27.3716V15.68C27.374 15.9897 27.3155 16.2969 27.1992 16.5841C27.0827 16.8712 26.911 17.1326 26.6938 17.3533C26.4763 17.574 26.2176 17.7498 25.9323 17.8706C25.6471 17.9913 25.3408 18.0547 25.031 18.0571Z" fill="black"/>
</svg>
