<svg width="48" height="48" viewBox="0 0 48 48" fill="none" xmlns="http://www.w3.org/2000/svg">
<path fill-rule="evenodd" clip-rule="evenodd" d="M18.6376 8.50898C19.3162 9.18764 19.3162 10.2879 18.6376 10.9666L14.653 14.9512H27.8355C34.5538 14.9512 40 20.3974 40 27.1157C40 33.834 34.5538 39.2802 27.8355 39.2802H17.6761C16.7164 39.2802 15.9383 38.5022 15.9383 37.5424C15.9383 36.5827 16.7164 35.8047 17.6761 35.8047H27.8355C32.6344 35.8047 36.5244 31.9144 36.5244 27.1157C36.5244 22.317 32.6344 18.4267 27.8355 18.4267H14.653L18.6376 22.4113C19.3162 23.0899 19.3162 24.1903 18.6376 24.8689C17.9589 25.5475 16.8586 25.5475 16.18 24.8689L8 16.689L16.18 8.50898C16.8586 7.83034 17.9589 7.83034 18.6376 8.50898Z" fill="black"/>
</svg>
